<mxfile host="Electron" agent="Mozilla/5.0 (Windows NT 10.0; Win64; x64) AppleWebKit/537.36 (KHTML, like Gecko) draw.io/26.1.1 Chrome/132.0.6834.210 Electron/34.3.3 Safari/537.36" version="26.1.1">
  <diagram name="Strona-1" id="6P2yR56rJOgucU6W8VPD">
    <mxGraphModel dx="1430" dy="825" grid="1" gridSize="10" guides="1" tooltips="1" connect="1" arrows="1" fold="1" page="1" pageScale="1" pageWidth="827" pageHeight="1169" math="0" shadow="0">
      <root>
        <mxCell id="0" />
        <mxCell id="1" parent="0" />
        <mxCell id="9NFw8wpEcOcO8KNCoePH-1" value="" style="shape=image;verticalLabelPosition=bottom;labelBackgroundColor=default;verticalAlign=top;aspect=fixed;imageAspect=0;image=data:image/png,iVBORw0KGgoAAAANSUhEUgAAAJwAAAClCAYAAACpzZQoAAAAAXNSR0IArs4c6QAAAARnQU1BAACxjwv8YQUAAAAJcEhZcwAADsMAAA7DAcdvqGQAADSdSURBVHhe7V17lFXVef+d133fOy8GGAjyhqCmEFOIMSKvUrXaaJo0WVVUfKz4TEKLq0uNNZqYrlUlqW20VolJfa2VWls1olFURG3FQkFBDCIIlpfAPJg7cx/n/fWP7m+vfc7MIGoyM5fc31pnzX3NOfve/Tvf9+1vfw+NiAh11DFI0DzPqxOujkGDVpdwdQwm9PgLddTxu0SdcHUMKrQwDOsqtY5BQ92Gq2NQUVepdQwq6oSrY1BRJ1wdg4o64eoYVNQJV8egok64OgYVdcLVMaioE66OQUWdcHUMKuqEq2NQcdwSLggCAAARyceMMAwjz/vb3fM8r8/nMMBn6zh2/N7tpYZhCN/3YZomdP2j7zff9xEEAXRdh2EYx/Q/dQyM45Zw1WoVhmFIYoVhCCKCYRiAkGCmaULTNPk/YRhGJCOTTP0MEcH3fViWJV+r49hx3BKOwdKM4XkegiBAKpVCEASSYP2RSwWr17qE+3Q4bgnnOA4SiYQkkO/78DwPlmVJAgZBgDAMpbTyfR+O48D3faTTaSkNwzCUhKzj0+G4JRyE+nMcB2EYwjRNJBIJEBE8zwMA9Pb2wrZtmKaJdDqNVCqFRCIRP40kHMN13X4/V8dH47glnOM40oZjbN++HY899hhWrVoFz/PQ3t6Ozs5OBEGAhoYGjB8/HieeeCImTpyICy+8EK2trWhsbJR2W13KfXoct4Rj9VmpVPDLX/4SP/vZz7Bhwwb4vo9kMgnHceRnTdOE7/vyeSaTQSKRwJ//+Z/jiiuuwJw5c4CYi0Ulch0fA1Tj6O3tJSIi13WJiCgIAqpUKkRE9PLLL9OCBQsIAAEgTdMIADU2NpJpmmSapnwNAKVSKUqn02RZlnwtl8vRn/7pn9LGjRuJiMj3fQqCQD72PI+IiBzHISKSz+voHzVNuGq1Kh8zCYiIwjCkm266iRobGwkANTc3k2EYlEgkqKGhQZKJXzNNU77GRzqdJgCUSCRI0zQaNWoUvfrqq0REVCwWqVQqERFJchMR2bYtH9fRP2qWcL7vk+/7REK6BEFA1WqVDh06RJdffrkkDBOLH2uaRrlcjhKJRIRgTD6WePw/6ud0Xad//Md/jIyjWq32kXJ1DIyaJVwcR44cISKiJUuWSGIlk0nK5XIRwrE003VdkkxVoQAomUxK0iWTSUokElQoFOT7Dz/8MFFMwqqP6xgYNUs41WZjCXPnnXcShC0Wl2qmaZJlWWRZFpmmSbquk6Zpkni6rkdIB2Hr8WPLssgwDLIsi/L5PD377LNyDERE5XJZPmbJW0df1CzhgiCILBBeeeUVgjDymTypVCqyKOCjP5tN0zSyLItSqZSUjCrpVEImk0n60pe+RAcPHiQSNqP6t75wGBg17RbhbSsiwh/8wR9gz5496OnpAQDp+tA0DZlMBuVyGYlEAoVCAR0dHWhra8P48eMxcuRIlEol7Nu3D4cPH0axWJT7qOl0GuVyGel0GtVqFfl8Hr29vfLcK1aswHe+8x1omgbTNKUrpo6jIM7AWkFPTw+RkCr//u//TrquS6nENpmqEvnxxIkT6ec//zl1dXVFVpW9vb308ssv05IlS8g0TamSVduND35v4sSJ8hws3dTVch19UXOEC8NQrkj5+cyZM8myrMiKku00XdclAa+//noqFotEMTtLdW0cPnyY1qxZQ2PGjKFEIiFVKS8kmpqaCIq7ZMWKFUSKS4SJV0f/qFnCua5LYRjS66+/TiNHjiQoK08mmOrEvf3226mzs5NIuC9UF4ZKEs/zqLu7m1avXi0JzL67fD7fR9qdf/75VKlU6i6RY0TNEo6PW265JbIwUB25TLa5c+dKKXY0ZzH78xgrVqwgTdMk8di3x9fTNI3y+Txt27YtslCoq9WBUdPBXZqmYd26dSAiaawHQQDf92EYhowKueWWW+QCQA0bD8MQruvKc/Gequ/76O3txfLly/HZz34WruvKhQNH/RqGgUQigd7eXrz77rsymiQezl5HFDVLuDAM4Xkedu7cCQAyXEgNqASAadOmYd68eSiXy7AsC5lMJkIyXdfBC3Vd12UMXTabBQCcffbZSCQSMkKYr6EGam7btg1CW8hw9Dr6R03/Mj09Pejq6gJEdAjDNE0ZRnTaaafBsiwkEglJStM0EQSBDF9i8jI48td1XSxatAiGYcD3/UhcHOc6JBIJ7N+/H+gnOaeOvqhZwpmmiZ6eHinRVAnEvjkAGDduHADAsiy4rgvXdaHrekQKsZTjTC0iQrFYRCKRwNixY1GtVgFBKE3TpHTTdR1BEMDzPBiGIUlcx8CoWcIBgG3bUmppmhax4xzHQSaTgeM4ICLYtg0iQiKRgOu60DRNklLTNCQSCViWJcnX2NiIarUaUbfJZBKu60o7LplMIggCeV12GNcl3cCoOcKx3QUAo0ePRmNjIyAIUa1Wkcvl4HkekskkKpUKPvjgAymRkskkfN/vE2rOYKLw5w3DkOqSRLg6hDpliQYhRR3HkZL1k9hwoUhfZFUNcU0mPJQFUX9g+zEMw2FN+I//ywwj5HI5GIaBdDoN3/ehaRps24ZhGHAcB9lsFuvWrcOuXbuQSqVk/kK1WoXneZJ4rDJZummaJrfCVq1aJSUY24G8iKhUKkin00in00gmkzAMQ57ro+C6LjyRQcYkNU1T2p88DgiiqTYno1KpoFgswvM8aJomJe8nIfxgYfiO7CNARDBNE9OmTZN3vaZp8nEikUC5XEZXVxdeeuklFItFpFIpAEA6nY6o4nQ6Ddu2pfr1PA/ZbBbbtm3D008/LUnBEohXuXyu6dOny+fHOtmmacKyLLlA4fOzdGLJxjYjkw+KNMxkMmhoaIiodL4RhiuO7dcZhuC7/vzzz5cqlI36IAjgui6SySTK5TJuv/32iGT43//9X+lrY6RSKSkheAJ/+tOfor29XS4ETCVb3zRNpFIpNDQ0YPbs2VKdpdNpec6jQdd1eJ4npa0m/IC6rksbk1fPtm3Dtm24rivJz+rbcRxUKhUp4dn1M2wR9wTXCoIgIN/3ae/evXJjnjfdOdaNdway2SydeeaZRP2EDvX29tKHH34on3d3d5Pv+3T33XdTNpuVOxgQ+6m8y8C7DxdddBGROK8aH/dx4fs+2bYd2aVwXTey5xuGYeS5ml9BYj/304xhMFCz4UmBcLD6vo8LLrgAjz/+eMROY5VTqVSQzWZRLpfx5S9/GT//+c8xbdo0QNhALA0cx0EymURnZyceeugh3HbbbSgWi5Fr8gqUbT1d1/HMM89g8eLFUvKxrXUs8EVyNoQJwP8XBAG2b9+ODz74APv27YPjONB1HdlsFuPHj8fEiRPR1taGZDIJiLIWulg1I/a9hh3iDKwV8F6q4zj061//mhoaGiKh4RDBmCydWlpaCGIj/pprrqEnn3ySOjo6qKOjg7Zu3UqbN2+mn/70pzRjxgz5P7lcjtLpNCUSCXkAoEwmQwDoa1/7GpVKpcjG/cdJpFGlk+d5tGbNGlq6dCmNHj06sj/Mkcn8PJVK0axZs+iOO+6gPXv2yH1glt7DOeK4ZglHMZUyf/58uXHPuQgQG+68mZ/L5eRj0zQpk8nQhAkTaPLkyfLz/D5HiKRSKTnREGTmz/zqV7+SY/k4RCMliMB1XXrqqafo7LPPlqRKp9PyOhx2xSHuPA5W942NjXTjjTfSzp07iZTghuGKmiZcIPIZPM+jnTt30ogRIwiKBMpms5EYOZYaqiTk13Rdp3Q63Yd4UKJOIAhomib98Ic/pO7ubiJFovQnWeJhUGEYSrIdOXJEJv0kEgl5bdVW5OurY9B1XX5H/g4nnHAC3XXXXfLcnK/LUi8IAhmGNZShVDVLuLjx397eTmvXrpWTFk+KyeVycpL4ME2TUqlUhJQ8iRDxbzzxTU1NUtp9+ctfpkOHDhGJ4E01gcbzPClhVBXHEpAn+7/+67/opJNOIgDyRuHrQJBM/Q6sVnlBBOUmYTLm83m6/vrr5Xg4d1ZNOGLSDxVqlnAUC6TkH3nFihXU2NgoVRJPlCohWFWpJOPDMIyIGjUMgwzDkCpszpw5tHv3bjmGSqUiCeb7vgwMVaUdT7ht22TbNj3xxBM0YsQIsixL3iBMMijJP6oE5nEzCQ2R4siPeXyJRIIWLlxIu3btkmMKgkAS/uOq/t82appwJCaT71gOsrzrrrtkdG4qlYpE6qqqkg9d1yOTCWEbMfFY6pxyyim0d+9eIkFw1VbyfV+OQyWc67pS0oVhSC+99BK1tbXJsahEYcIxCTWR3sikVwkYV7sQJgRL8W984xsy78PzPCntfKU8xVCgZgmn3qlqFC9LvOeff56mT59OEDadpmmkaZokD/qxjSzLolwuF1ndMlm//e1vUxiG1NvbGyEQX1Mdg+oLcxxHqtRyuUx/9Ed/RAAk6Xh8/FhN2mHJnFByK3RdlzeCruuUTCYjN0o2m5Xn4HyLuBYYSl9dzRJOvVPL5bIkYFdXF5H4kcvlMi1fvpx0XadCoSDJxSpVXfVBWVTwZwDQzJkzafXq1URCgqpEVyUFk48d0jypvlKS4m/+5m8IiruGiaYSRi1RoYscDXWMUGxM1TFdKBQi6hkAjRkzhp5//nk5Rib/UKJmHb+IOVl5HzKRSEjHZ7FYRDabxfbt23HnnXfimWeekXum7HDlvVTeI9V1HQ0NDZgzZw4uvfRSzJs3D83NzXLbCACOHDmCbDaLMAzl/izw/3uZ7GjmMfgid3bz5s2YPXs2PBG3x1tYANDY2AjHcVCtVpFIJOR+6qmnnorTTjsNY8eORRiG2LdvH1577TWsX78euq4jlUpF9k0ty5K/ATuV58+fj+eee05uuw25UzjOwFqB53kUhqGUOKqaYNtKVXO2bZPnefTQQw9JCafaSACotbWVvv/971NHRweRssoj4WYYyL9VqVSktFPHEYahtCsvuOACQixXlsuD8XNehZ522mm0ZcsWqQJ57CTSGF944QX6/Oc/LyUgO7Wh2H9QnN0vv/yyHCfV3SK/WzBJmJjvvvuuVEWsNvlvY2OjdKB6nidXeJ/EjcAEcRyHPvzwQxo1apR0wzAhstmsVPOsZr/3ve8RKT5G27apUqlIdc5uF8/z6MILL6TW1laCMAd4ZcvPE4kE5XI5uvTSSyOq9JN8n98WajZa5OOCw3vETRZ/uw90Xe83NOhYYRiGjA5+4YUXcPjw4cjeaSqVQrlclucvlUq4/fbbcf3118t9Wo5/sywLliiGzREtruvikUcewYwZM5DP5+V3CkSeBX/Gtm2sXr0a3d3dUoUHQ5hZdtwSjieAyaKS5lgIp4nI4k9CNoj/Z8L9+te/liRigvEY2G5csGABrrvuOhnBzOcwDCNy8HjYDnv44YdRKBRgGIZ8zfO8yPX279+P7du3R8KshgrHLeHi+CSE+7Tgif3Nb34DiBB3jirhotdMimXLlqGhoQGdnZ2SkHyoJOXD8zx0d3fjhBNOwNVXX40gCGDbNrLZLIhILh54DOvWrYPxMSKSf1f4vSHcUCCZTOLQoUNob2+HJqKRfd+PSF/TNNHc3IyTTjoJRISWlhbgI24KJlRjYyOKxSLOPfdc6CKDTE0ssm0bgUjy2bp1KyBW80OJ3xvCqRN4LNLraBN+LODo446ODpTLZZASQq4p6tp1XUyYMAGjR4+OjEtVvwx+rovYt3K5LEPMR44cKbvr6KLUGIS9xmHnYRgil8tJt8tQ4LglHE8UE+eTEC4UOaqfBrquy2wv9uOxWuVxFAoFmel/rPkIrFohssaICK7rIpPJwLZtSSq+hi6Sa5iwQ4Whu/IgQ1Vjx0I4Jps6sR8HnkiqzmQycmWq5s3yKpaLG7quCyKKfJ7R3xg04bCGiPjlnA6G4zgoFAryOatS27bla0OBmiYcV6tUJ4OX/OwC4EQZDr+2bVsSTg3phphENqp5N8BX8kQRk5R8bVUS8l9DpPrpuo7GxkaYpolyuSzf42s7joPDhw+jq6sLmkic0UUIuyP6fvFNEsZKUjCJ9u7diw8//BC6rqNSqciFQk9Pj9wJaW5uhm3bkZ2RoUDNEq6npwcNDQ2RyeDXe3p6JAkKhQIOHDiAe++9F0uWLMG1116LUqkEQ+SuGoYR2bK6+eabcdFFF+HRRx9Fe3u7zDXwRIaVqvI4uypQuhIy0T1R/mHcuHH4zGc+A4g8WiiVAdi437FjB15//XX5nmEYCMMQyWQSpmnKjC1dyShjQoZhiLVr18LzPEkm1UXCEm38+PFIJpOwRQWCIUPcE1xriEdqqHj00UfpiiuukIGOfKj5CZaoaq6+D+Gpz2azdMUVV9Bbb70V2Q5yXVdG1PaHUqlEYRhSuVym3t5euvLKK+V5x40bR1C2oDga5eSTTyYSpWRd1+0T+qQGCriuK0OPDh48SG1tbZGIE9M05ffjgIRnn31WBhYMtEU3GKhpwnHcGW/bFItFKpfLtGnTJjr99NP7BF3yNlBCaQDCsXBQIjXUEB/+3zlz5sgcBt4mC4JATjyJFEPeS+XXK5UKnX/++RFyqVEpvM2Wz+fpBz/4gTwXKdtrDNd1yYkVTbzqqqsIsVwLNcLEMAwaN24cffjhh/LGrBPuE4D3A3mjvVKpkO/7dOedd8pNcE2UwucfPx6wyFKG9zd5wvj1OGGTySQtXbqUisWi3OeMQ40AXrVqlYzJgwhHUjfXVVJns1kyTZP+/u//Xv6/ejPFUa1W6aabbpLnVc/D4+Xvde211xIpgQVDuZdas4RT735fBDjOnj1b/uhxchmi9q+axRXfxFf/R01qQYwcJ598Mq1fv56CIKBisShVFUeXdHZ20nXXXSc/r0ZzcOybGlTJhEmlUpTL5eimm26ijo6OSASK4zgUigScAwcO0DXXXENQpBlnmcVvFsuyaO3atfJ3O5opMBioWcKRCLysVqv05ptv0rhx46hQKMioC3Vi44GJECSL226WaAyiSrZkMhmRfBxelM/nZdgPKVnymzdvlsQfNWpUZCyW6GLDj1UVyI+ZfFOmTKElS5bQfffdR88++yw9/fTTdNddd9F5550nTQMIosUDMlWVeskll1Bvb6+8OfuTyoOJmiUc2yObN2+mmTNnRiaWpRlE2A9LLk7x48mAIJGajKK+zo8NJZdAPXdzc7OMBu7t7aWVK1eSJpJ2ErHi1ur5WNWp2WKWkqWlSsSBjlQqJZNtoIw9k8nIMba0tNDbb79NJIjGpKuHmA8AtRcDDZAaePLJJxMUNcpk0ERzN57YeHfBfD4fIZgl8ht40vnzlshzUD8HJX5t1KhR9K//+q90zjnnyPfVhBjE1HE8ZwExW5LHFA8vVwmsidi3ZDIpr8Mkh2Ii3HPPPTJ+jjGUZKPhTjhGpVKJGLyu65LrujIhpT+bTVVjPAEDqVGeTJ5InmhVKqmrWVZ7am4CE1hVa6o6TqfTUipNnTpVlpHg66rSLikyslTSMgE1EaUcNxMMw5DSzTAM+tGPfkTbt28niiVox2/awcawJRzflez6UO9Mx3Fk50CeDCaLSggoxrRKPCYFqzr+P55ky7Jo5MiRkniJRIIymUyEAKrE5P+NSyU+L1939uzZtHbtWtq7dy9Nnz49QjKWfKbiQzOV8Pf4uRH7nmPHjpWPr7vuukhytupDHMoVKg1nwrGDUiUeq9hNmzZRoVCgTCYjpQwThR8bhiHfy2azZBgGFQoF0nWdzjnnHPrFL35BTz75JL344ov07LPP0gMPPEDf+c53Ik5iU8kbVY848VRSq58xRa5rPp+nG264QY6/Wq3Snj17aO7cuWQJW4v/T+1YnRKdDdGPhGMSq4scy7LoqquuiuSgsnTjlfRQY9gSjsF3ZChyQh3HoauvvprQT7qcLkof8ITxJOi6Tq2trXT55ZfTnj17iMQK11WSqBnt7e20ceNG+pM/+RNp3Kt2lyop42qN1XihUJDSacSIEfTII48QiR0IdRdh7969dO2110rCNDc3RySp6qCOfyeW6HzNyZMn0y9/+UtJKs/zIpItUPrKxr/zYGLYE46EROBJ2rhxI7W0tEQmm10NTAQ2oLla0qJFi+jw4cOR86lgacqP2Vd14403Rs7N9pZ6zfgY1OPP/uzP6P333ycSam0g4339+vU0b968iISE4i5h/xzfYJZlSXU6depUuvXWW2nHjh0UKllscajSbSgl3bAmHE+QKhVuuOEGgrIKjbsvECvLdc455xAp/qdSqSR3CXgFx+pGJQSrpRUrVsjzs/RUyaWqQN5JaGpqoscff1yOnZvKqeqNxGKIpVBvby+9+eabdOutt9LMmTMj7hwoLhTDMGjkyJG0aNEiWrZsmVwYcAogKe3YSVyzP0k+VBjWidBqOI1t2yiXy5g9ezZ2794NU3ST4eFztctCoSCb9F588cW45557kMvlQCIPgCM0GBSrFs7POVDRcRzcd999uPHGG1GpVNDc3CxDiThKJSF6P3A/rocffhh/8Rd/Ic+pXpOjWDgYEkrFykCUxddEpPD777+PHTt2wBE9J7gC5owZM5DNZuX/q79TuVyWSdoc5sSfg9LUeMgQZ+BwQVwFhGFIzz//POlin1Rd4akrOP47duxYeu+99yJ3N0uWY3ENsFr1fZ8qlQpdeOGFBMUVwitjHgNfO5vN0g033ECk7D4w4hLu9xHDNh6OY8KgSKEtW7YgDEMp3Riq1ODXL730UkyYMAGWZck7nP8eyx2ey+VQqVTgOA7S6TSWLVuGMWPGoFQqyZIKJKqJq+cvl8vYsGGDjIfj91RFokqcgcAJNwMdtYphSzjEGrYREV577TVAkJEDFZk8RCSjaEeMGIFLLrkkEtLN4ADJY4El+igAwB/+4R9i8eLF8nUGqy0oEcT/8z//g66ursh7H5dwnIMw0FGrGNYj5wnUdR29vb145513Iu+rk6g+/vznP48pU6YAil3GUpJESPhHIRDpdYboJOg4Ds4888zIe/yYwUQqFovYt29fJPRc+5jJK3GCxY9axbAdOaurQKS9dXd3o7u7GxCTzAY7k0cX6tQwDMydOxcQySVGLGM9mUwek4Th8wZBIEsszJw5E7ooocCSVSWv7/tShX/wwQeR8WmxZOaPAn9uoKNWMawJB2VCK5WKJJ8nOreon+PnYRjixBNPjLwWx0Cvq7AsS5bPgrD7xo8fj7Fjx4JEIzWIcxmGIRvHMSE4qSUOiq0aB0KcYPGjVtH3Fxkm0IX9w6pLU2p18A8eVy+maAfECSSskpm0nFByrBOWSqWgaRoqlYo8L+ePsi3IkjVOolKpBF1xfRyLGlcRV6Hxo1YxrEfOCcQQZOIsKSgqN044KGTQRHkFJh4jTo7+oC5YMpmMJN6hQ4fkNeP+NShjYAnIn1VV6+8zhi3hgiCQpQsc0ZYonU7DdV0p9VzRAhJiotldwD1O1RxNx3GkczSunvo7LMuS52bJ2N7eDl8p1wBht3HFSV3X5We5w2AYhpFxDCTxPNHKkqE+jktkT1RHUp/Xiqtk2BKOpRLbR83NzRgxYkSECKrbglejALBhwwZAkUBdXV1S3fpKYvHRDgBykaKJBcpvfvObiFrnzxnCZxgq3QT5r2VZkuiq1NSFLcplGdTvAuX7kyjhoLpzeGGi3hy8wHJdtw+ZhxOGLeEQq/STyWQwefJk+Zx/6P4kxquvvirJApF1bojEZ9M0j2lCfN/HyJEj5co3CAK8+OKLcBxHJjTHz6MpRWra2trgiwKEPEZVMrOkZjuRs+xJLEg4yVnTNCSTSXnzhGEoTQ0mHUtdwzBkMcLhiuE7MsUG42z3U089FZ7nRXxgTEoS/jVd17F792488sgjssokgyctrj77O/i8gciqL5fLePTRRwGhYg2RjY/YAqJcLmPGjBk45ZRTJLlD4Y9joiREV2n1/Jxlz99ZrSWnQle6BvLzuC07nDGsR2nEWm7Pnz8fUOwgnnCWKoHYKCci/PjHP0ZnZyey2SxKpRIqlQp0UXvDEH65ox2pVApdXV2wbRvJZBIrVqzA4cOHkc1m4TiOHANLP3Wc5557LjxRGoLEDgh/nvqxvVglV6tVeb1ANPzlG4BvLrbtXNdFb29vpDhNvBTFsER8c3W4QI0X4832gwcP0qRJkwhKuE48tFvNZLr22mv7hOWoYTxHg7rB/sILL5AhMqHUsG/002tB0zT653/+Z3mOeKAAv6aOI76ZrwZRlkolOnLkCHV0dEQy+9W4NzUamp8PVwxbwsWjU23R7Xj58uUEJdqW/3LwIod1c+zaPffcI+PR+FyeKLl/tKNUKpHv+7RlyxaaPHmyJBQTj8nFQZJMOsuy6Bvf+Abt27dPfpdSqdQnAZkjYGzRoYYE8TZv3kw/+9nP6LzzzqO5c+fStGnTaOTIkdTS0kITJ06k008/nb7+9a/TU089RTt37iTXdalarUYId6w31VBg2BKOYjH5PClr1qyJ5JeyhOHMKyYGH1yzo7OzU0oXDi8/2kFE9J//+Z90wgknSGKrGVlqXkFStB/i0G8A9JnPfIbuv/9+SfJqtUqhyDhjsvF3CsOQVq9eTeeee67MvOLwJzWMnA++yaZNm0a33nqrLPVfKpWoWCyKX294YlgTjpSsLVYhruvSN7/5TYISgcsqzox1Cczn83JyFi5cSM8995wkwEDNMRzHoa6uLrrmmmtkln0mk5GTnk6n+5CL8yagEJ/j5s466yxqb28nEoRwROdmJtv69etp4cKFkrw87kQiIdMKLZEgxEk1/Fk1wefGG2+k7u7uiHTzPE9KvrgKHioMW8KxZFMDGFnyvPTSSxGy9ZdZ1V/oeSKRoLPOOovuvfdeevvtt+m9996jvXv30qFDh2j37t309NNP07e+9S2aNm2aLKegx5rhqql5zc3NUgoxCdTaJdwH9bOf/SytXr26z0T/7d/+rSwHYSnZ+WpmvmovGrGWlRCk4xtj/vz59M4775Aryonx7+U4jiQcS9ehwrAlHNtwquFdqVTkj3XzzTfL3AJd16VEUfMNTJHjyerJiPUfHTFiBE2aNInGjh3bbzI1hHRjAnEeRfwzELkNTBRN0+Q4mCCpVIq+/e1vU7lcpmKxSH/5l39Jzc3N8jMqsaAkBCGWAsnPB1q8ZDIZWbxGXbA4SmO3OuH6QX8JLaRkXBWLRZo9e3YkiUWdYCi2FksgNYcTghjx1/hIijIKTEKVjIZhUFr0pefXmNQJpdihrmTrsxo+/fTTafny5fKahUJBSmvVTlQPVq3qWNTxJBIJSXBN02jEiBFSonJCzVCSTMWwJRzF1Kq6amUb6PDhw9TQ0EC66BsalwrxieOjqamJ8vl8H2OcyzGoKpKPrKjfBsUFkhLN2f74j/9Y1jhhFakSIpPJSNuOX2NpGL++qSx8kkqhHX6u/l82m41IVfUao0aNog0bNhDFNANX5xwqDGvCqUv9eGEbEkRcs2aNzNnku5wlD0s4CALm8/kIEdkmi0srPlg68oQyGQylg9/SpUspDEPq7Oykiy++WEo4Q6w0Wa0zYUwlm18TpSVYYvJ1E7FiOHGVaihVBdRCO0w+HttXvvIVedPyYiIMwz5+v8HEsCYcKatJXt2xIUxEdODAASIieuONNwhCPalGvTqp6msDEcxQWn0zCVSbTYtVLLryyitlNUzGzTffTE1NTRFVz+dgAjNpdZGBxtdmwrCab25uphNPPJHOOOMMmjt3Lk2fPp0aGhpIE/ao2gqTic5k5gXLj370IyLFrTTUGLaEY6Kp9htDXbmyT62rq4u+9KUvyYllm0lVYzzJKrlM4U+Lq1dVsrFk4s8DoGXLlsmVHxOOpfD27dvpc5/7HOXz+T6LB762ShR+bohVaFNTE/3gBz+gt956S35PxoYNG+jmm2+m0aNHE8TNoy6UNE2LLHQymYy8MUnUIR5KDFvCHStUR+2ePXto2bJl8sdXbS1VyrGBrz7WNI3S6bR8zO9D9FFlwsyaNYtefPFFCvvZnVCPYrFIS5culaqSJQ+vTPlQValhGLRgwQLq6OigIPj/Pq2qCcHPgyCgrVu30vjx4/uoaCjSjs8/nKRczRJOnQhVpXV3d9O2bdto9uzZkmRMoJaWFmpsbJSvG6KGm0oATRjfPImqZPqrv/or6urqkrsGRztYQj/55JM0ZcqUyDV4scFkM8R22fz586lYLMo6JEcjXKlUol27dlFLS4tU37quS0JriikxZ84c2r9/vzxXfJttMFGzhPNiJeUpRsKenh761a9+RUuXLu1j1zGR+lOjqVRKbi+l02kaM2YMLVu2jHbv3k2+70fcDEc7SDEHHnzwQTn5rJrVcQCg0aNH0/bt2yVR42RjxF9/5ZVXCEKC8s3D11JXtK+99pr8n6Hca61ZwpGw5WzblhPgui6Vy2Uql8sRW+WNN96g+++/n6666ir64he/GJFqliipytIml8vRpEmTaMmSJfTYY4/RwYMHqVqtkuu6ctFyLKs83/flvuZtt91GuuKc5oPdMADo7rvvJlIK3MSJxeDXy+WyJM7ll19OiJkQ/Jy/6wMPPEC+KFsxlKhpwn0UuMo5KWq3vb2dJk2a1K8fLJlM0h133CElp2rzHDlyJLLZ/lFQ1fy8efMIym4A24pMhtGjR9O2bdvkIqRcLh/1GvyeL0r1v/baa30IxgebBldffTXZth1pZDIUGNYBmEeDmh+gIggC2aAtk8nIyNqK6Bc6YsQIpFIpGbiYSCSQyWRgmqYMQTcMA52dnchkMvB9H+VyGY2NjbLTHwdBHg2maWLfvn2ASDeEGEMul5NRyxwB3NLSglQqhWQyKSspccBmf+D3uFJSPp9Ha2srNKW1eTxbbOvWrTIRiT8zFKhZwnGYuW3bqFarkgSGYSCdTqNUKgHih3ddF4VCAbquy8ZuakphtVqV+QVMDu7MbJqmzEXlZBc1uvdo4KZu7733HiDGbNu2zHVIJpPyppgwYQJc0e/0WNDT04NCoYAwDDFu3DhZ7kslqmVZklwcas/JREOFmiUc5wqkUimk02mZY8CSL5fLSSnGGVL8mETOgmmaclKq1arMTWDyclKLivjzgeCJfqlc240liy/SCUlkfVUqFUlMfIzzFwoFeJ4HXUmMZqmpJgrx+VjS27Y9pPkPQ3flTwn1h2ZYliUln6e0c2Ri8eQ7jgPLsmS2EyemmCLZ2hDNczmphcG5EwOp8ziY6KZpyvyGdDotycCS8+2335b5C+r1wjCMqG/+DBQicS5EsViUqtoXqZA8TsuyJOFSqZS8/lCgZgn3UVDVCSef8PNsNotAKfcVhqFM3eOJUbPqOXOMJSaT+mjgz1iWJWudWKJeCUvlzs5OtLS0YP/+/Vi7dm0kG4tvBE7SCURdFbbTmFCO42DTpk3o7u6GpmnyJjGUBsCe5+Fzn/ucbFbMtuNQ4LglHGJ2i2EYSKVS0mYLRc5nXOVwtr9t27BtW2ZkZTIZpFIpkFLI5qNQKpWQTCYxZcoUWeyGwfZaZ2cnPM/Dc889h0qlgmKxCAjp6IjW5IaoAOW6biRjrFgsIp1O4+/+7u8AAPl8HtVqFbroZM35swBw4oknIp/PI1SStYcCxzXh+AcnUd8XQsqwJOHUOygtykPR5psXEHG1rUqPjwJLudmzZyNQasoxkSuiJnEikcCdd96J//7v/0ZDQwNc15W5qYlEAp7nSembTCalrdrW1oaf/OQn2LJlC6AkjrPKtG0blkgWnzRpEiBWykOKuJ/keAHvCKj+MI6jmzp1qtzuYmcp+6/uv/9+IhHgqfY+9UTl86P5x1Tw56rVKpXLZWptbe0TdsQHO4QnTZpE7777rvx/3if2RTKR4ziRyN21a9fKiBE1SCEp4ug4gOGkk06irq4uuWU2UD7HYOC4lXCNjY2AUGvslzNNE5VKBU1NTSCRYMxJyqyq2M4pFApIp9NyRWmaJpKimOGxqFT+XCqVQiaTwTe/+U24ovqTrutSrenCVTNy5Ejs2rULCxYswKpVqxAKF4wlao4YooxDIpFAEARYuXIlLr744n7tylBUVmfpeOWVV6KpqQmWZUEXmfpDhWFdNv/TQHXihmGI9vZ27Ny5E2vWrMEdd9wh/XQ8gUyOxYsX4+yzz8a5556LhoYGWYKeDfJjBS9EUqkUqtUqPvjgA8ydOxfFYlEuWAxRFCcMQ6lCHcdBNpvF4sWL8fWvfx1z586VNlsQBHj11Vfx+OOP4+WXX5bfobW1Fe3t7YC4UbhtAAC0tbXhjTfeQFNTU2SxFDcVBg1xkXc8gXuE/tM//ROdcsopcr/UVNIJ1Rg5NbynqamJvvvd78p+o/QxM55YbXV3d0u1zC2bTKUbIG93cRIPj4H/5vN5mj59Ok2bNq1PvoMax6cr1Qc0TZOq9h/+4R8iSUhDjZomXCA6yDAJeJLZxlm5ciXNmjVLTpAarGgoGVy6CAVXgzJ5Qg3DoMsuu4zee+89SRyVdBwRotp38dZKPNFdXV2R5nFsuyWTyUiEMI+BAz9VgvFrVizsXCUj7xMvWLCADh48GBnDUKOmCcfEUqMgAtGH/qKLLqK2tjZJNLVVtzqx6qQy8UzTlJKHJcWECRNo7dq15Hke9fb2RvI84wsThm3bkqQ8vnXr1slxxSOS0yKJRh2npnQP5BtEPVSiNTY2RgICtm7dShQLQhhq4tUs4dSJVYMV29vb6eKLL45MpBpBYYhkm1Q/7chTqVQkRq6pqYmgdBPUNI0efPDByDiCIIhMKBORieYqnXBY8v3Lv/yLvL6u69TY2Civy1IvPhY+dF2XEqy/INHm5mZKpVL0i1/8Qo6Df6tjNQd+l6hZwlEs38HzPPI8T5aBSIqUuv4kiDqBcelhKNnt6qSyKjZNkx566CEpXVmNx2Pk+H0SLhYioo6ODvn6unXrKJPJkKZpMss/br9ByWe1lHIS8fGrNltbWxs99dRTROL3YZKrkm0oiVfThOPJZgnz3e9+l6DU/+BJYbXENloqlaKE6EWqiSjfeBwZYp0CWRolRQfDJ554gkghmkowBudaqNKYgytJ+NG+8IUvEIQ6jOc7qAsBxBY4CSUHlT9z5pln0u7du+W1VF9kXMoOFWqacCQmOggCWrVqFUFIIlY5nHOqTiKU/ND463wwISEmXW0lyUQ97bTTZLNfNXVRLRqjPlc/owaGVioVWr58eUSq5nI5siwrQioopSvUcHVLdJT+yU9+Is9fLBZlhDIpN0N/ub2DjZomHId7d3V10ZgxYyLE4AUAT1Y2m40Y2Jqm0ZQpU2jevHn0xS9+kcaNG0fZbFYa8nFCmspCgt+75ZZb5A6EOiYV6uKCPf0M13Wlqtu9ezf99V//NZ1yyimEWOUAlsz8nN9bsGAB3XHHHbIWXVdXF3V1dcnze6KgIYMfDyXhatbxy85YTdPwwAMP4LrrroMnysmzs5d3BJLJJFzXBRFhxowZuPDCC/GVr3wFbW1taGlpQRiGOHLkCDZt2oQHHngAjz32mIwk4VAf3qfkTX7XdTF27Fhs3LgRo0aNkvuyvElvmiZKpZLcz+VIXijRGjwuV/RaNQwDpVIJGzZswDvvvIPNmzdjx44dkX3gqVOnYubMmZgzZw4mTZqEESNGwPd92LYdKXbti3L+HHXCDl8e25AhzsDhjlCkybG6OHjwII0fP56SyWTE6GabjO0uAHTqqadSqVQiW1TT5POpEurAgQP0zDPPyEUCq2dV4rAdpes6/fjHP5Yqi23J/uy5Ov4fQ7S/8enBEmfLli3o7u6GLyJpIfYxHcdBPp+XYT5f/epX8frrr8sICr7LeU+VpUhbWxsWLFiAf/u3f0OhUIBt28hms/A8D83NzYAIY7dEz9T/+I//kBKLAz6PNZrkaAhFRPNAR80izsDhDpZwjiiy973vfU9KG7atWAJZooBNS0tLpOYur9pUe4rPqeK+++4jQ9mRYDuKjXl+nR2svID5bSAIgqMetYqalXBsn2zcuBEYoIeV53no7e3F97//fYwdO1a2ROKoWJZuEFEbhmHAtm14nodisYhvfetbmDVrFogIhUIBgSjL74uuzCzRuPPNbzNfQO+noZt61Cpqd+TCcH///fcBJTkGgnysMsePH48LLrgA1WpVtp5kqNEa/DyVSsGyLNmP4Wtf+xpM04Rt20gkEnCV1kJEhGw2i3fffTdyvjoGRs0SLggC9PT0yLAcVVqpq8rZs2fLrCn1PVfpHoNYmyUIKVitVrF48WJJNCaxruuwRMpfuVyWbZZSqZQMGfq04O8z0FGrqFnCsQuBgyvDfjKa2NXAZHNdV3b2Uw1vVqck8hVc15XJz62trfJzlUpFhmyrUEn221J37PIZ6KhV/HZ+nSEC+9000e0PSqRtQ0MDqtUq8vm8zG5KKI3P2P7ylXaUmshXYJUK0U6IH1uik2EQBPBESp5pmjJKmFe0Nb2K/B2j5giniRBtABg3bhzS6bQMr1bVTblchmEY2LhxoyQGG/pqiLipNEbjyF+WIMViEb29vThy5Ij8LJRwbi4FMXHiRJDiWqljYNQc4VQkk0k0NDQAysoTghCByOPcv38/du7cKXcfPNFQjW04CKJ5ngdDhH0DwJEjR9DQ0IC1a9fC931ks1lp5/HfUqkkpaEmGsKp/sA6+qJmf5lA5IvOmDFDbtcw4YgIush67+zsxCuvvILe3l5pg3H6HYPVKP+v67poamqC67p45plngFjnP0PJCSAizJo1C4glX9fRP2qecGeffTZCsXfIpFFtqGQyiRtuuAFhGKKxsRFEhI6ODjiOg2q1Glmd+r4Px3GklLv77rvx5ptvwrIsmXHFCwu29zKZDBYuXCivyWOoYwDEPcG1At6v3L59u4zi4H1PDttRX1u0aBHRAEWqXdeNhIMTEd17772ycDMHN+pKbWA+/1lnnUUU6/RSyzsBv2vULOFICZ8+44wzCEqkLG9xcbg2x5rNnDmTtm/fTtVqtU+0MGPnzp20cuVKGjNmDKGf+Dje6uJrPProozIAgMPchzL8Z7ijZgnHe6FhGNKDDz4om2Ew8Xg/lUnIdXshGve+9dZbdOjQIbJtm7q7u2nXrl30xBNP0Pnnny/PE68wzo85NPyrX/0qHT58WMa6MerRIgOjZuPhGIGoirRw4UJs2rQpYtyzm6KpqQlHjhyRmej8lVtbWzF69GgEQYADBw7IHQNe5UJxwPqiOAwXqHEcB08++STOO+88QMS4cX0SV6nCVEcMcQbWEtT4/C1btsgsK47950hZlnL8Httfat6DLrpIx3Mb2AbkeDv+n8suu0zG1HE83XDogzDcUbOrVCgRIr7vY+rUqbjnnntgiHpqXII0CALpJ4OQXr6IzFXdG6Eo7Mc1RlKi5q5t22htbYXjOCAi5HI5TJs2DcuXL4dlWahUKvIc7BiuO4CPgjgDawVs6FcqFfKUHlw333wzpUUvrUwmIyUUSzdV2kFpoME2miYag/Bj/ty4ceMIAE2cOJHeeecdIrFoUXMYWOLWV6kDo2YJx4Z5PN/S93267bbbCMJ1EVeniUSCMqKlOLtP1AUBH2qyMbtdpk6dSps3byYSalRd6Tqi+VwdR0fNEo4U24lJxw08iIhWrVpFkydPJgA0ZswYad/xoet6nzQ8S/SV59cSSuO1RYsW0Z49e8gXzUgoVgOOb4C6S+ToqGnCcUY7Kf2j+G8QBLRz50665JJLIlJL0zTpn9NFVntCNEPjnFMIX14ul6MxY8bQypUriYRUjXfj830/olaHso9VLaCmCadCzcfs7OwkUgi5Y8cOuuyyy2jixImyj6jaf0tdrULUEjnjjDPovvvuI9/3I+cmIVGr1WofW8113T55EXVEUbN+uEDkWar5nmEYym4vDE/Uw+Vy+a+//jrWr1+PPXv2YM+ePejt7UWhUEChUEBzczO+8IUv4NRTT8X06dPBG/lcV5dEUACvRtVxcHwcX7O+p9o/apZwddQmatoPV0ftoU64OgYVdcLVMaioE66OQUWdcHUMKuqEq2NQUSdcHYOKOuHqGFTUCVfHoKJOuDoGFXXC1TGo+D9qHMaFKk2N0gAAAABJRU5ErkJggg==;" vertex="1" parent="1">
          <mxGeometry x="172" y="390" width="96" height="101.54" as="geometry" />
        </mxCell>
        <mxCell id="9NFw8wpEcOcO8KNCoePH-5" value="" style="edgeStyle=orthogonalEdgeStyle;rounded=0;orthogonalLoop=1;jettySize=auto;html=1;" edge="1" parent="1" source="9NFw8wpEcOcO8KNCoePH-4" target="9NFw8wpEcOcO8KNCoePH-1">
          <mxGeometry relative="1" as="geometry" />
        </mxCell>
        <mxCell id="9NFw8wpEcOcO8KNCoePH-4" value="" style="image;aspect=fixed;html=1;points=[];align=center;fontSize=12;image=img/lib/azure2/general/Quickstart_Center.svg;" vertex="1" parent="1">
          <mxGeometry x="50" y="406.77" width="68" height="68" as="geometry" />
        </mxCell>
        <mxCell id="9NFw8wpEcOcO8KNCoePH-6" value="Producer" style="text;html=1;align=center;verticalAlign=middle;whiteSpace=wrap;rounded=0;" vertex="1" parent="1">
          <mxGeometry x="40" y="474.77000000000004" width="60" height="30" as="geometry" />
        </mxCell>
        <mxCell id="9NFw8wpEcOcO8KNCoePH-7" value="Kafka broker" style="text;html=1;align=center;verticalAlign=middle;whiteSpace=wrap;rounded=0;" vertex="1" parent="1">
          <mxGeometry x="208" y="491.54" width="60" height="30" as="geometry" />
        </mxCell>
        <mxCell id="9NFw8wpEcOcO8KNCoePH-25" style="edgeStyle=orthogonalEdgeStyle;rounded=0;orthogonalLoop=1;jettySize=auto;html=1;entryX=0;entryY=0.5;entryDx=0;entryDy=0;" edge="1" parent="1" source="9NFw8wpEcOcO8KNCoePH-22" target="9NFw8wpEcOcO8KNCoePH-23">
          <mxGeometry relative="1" as="geometry" />
        </mxCell>
        <mxCell id="9NFw8wpEcOcO8KNCoePH-22" value="Bronze layer" style="rounded=1;whiteSpace=wrap;html=1;" vertex="1" parent="1">
          <mxGeometry x="300" y="420" width="120" height="60" as="geometry" />
        </mxCell>
        <mxCell id="9NFw8wpEcOcO8KNCoePH-26" style="edgeStyle=orthogonalEdgeStyle;rounded=0;orthogonalLoop=1;jettySize=auto;html=1;entryX=0;entryY=0.5;entryDx=0;entryDy=0;" edge="1" parent="1" source="9NFw8wpEcOcO8KNCoePH-23" target="9NFw8wpEcOcO8KNCoePH-24">
          <mxGeometry relative="1" as="geometry" />
        </mxCell>
        <mxCell id="9NFw8wpEcOcO8KNCoePH-23" value="Silver layer" style="rounded=1;whiteSpace=wrap;html=1;" vertex="1" parent="1">
          <mxGeometry x="460" y="420" width="120" height="60" as="geometry" />
        </mxCell>
        <mxCell id="9NFw8wpEcOcO8KNCoePH-24" value="Gold layer" style="rounded=1;whiteSpace=wrap;html=1;" vertex="1" parent="1">
          <mxGeometry x="620" y="420" width="120" height="60" as="geometry" />
        </mxCell>
        <mxCell id="9NFw8wpEcOcO8KNCoePH-27" style="edgeStyle=orthogonalEdgeStyle;rounded=0;orthogonalLoop=1;jettySize=auto;html=1;entryX=0;entryY=0.346;entryDx=0;entryDy=0;entryPerimeter=0;" edge="1" parent="1" source="9NFw8wpEcOcO8KNCoePH-1" target="9NFw8wpEcOcO8KNCoePH-22">
          <mxGeometry relative="1" as="geometry" />
        </mxCell>
      </root>
    </mxGraphModel>
  </diagram>
</mxfile>
